<svg width="93" height="93" viewBox="0 0 93 93" fill="none" xmlns="http://www.w3.org/2000/svg">
    <g id="monitoring 1">
        <path id="Vector"
            d="M90.0676 46.175C89.7409 22.5885 70.6296 3.69617 47.1368 3.5118C47.0384 3.50387 46.9257 3.50321 46.7963 3.50321C46.7956 3.50321 46.7943 3.50321 46.7936 3.50321C23.7803 3.30762 3.81614 22.2279 3.50874 46.2219C3.50874 46.2226 3.50874 46.2239 3.50874 46.2246L3.49487 46.7835C3.49487 70.0727 22.3905 90.0637 46.7956 90.0637C70.9433 90.0596 90.3792 70.381 90.0798 46.2338C90.0795 46.2133 90.0689 46.1949 90.0676 46.175ZM46.7896 71.8433C32.8486 71.8433 21.7206 60.4907 21.7206 46.7835C21.7206 33.1715 32.9642 21.7237 46.7956 21.7237C46.7949 21.7237 46.7963 21.7237 46.7956 21.7237C61.543 21.7281 72.6038 34.4936 71.7338 47.3073C71.5713 49.7318 71.2331 54.7769 68.3052 59.6575C63.7298 67.2863 55.6888 71.8413 46.7956 71.8433C46.7949 71.8433 46.7946 71.8433 46.7939 71.8433L46.7896 71.8433ZM73.8207 45.2204C73.4547 38.7708 70.842 32.7553 66.3815 28.0907L76.405 18.0705C83.5417 25.4198 87.6342 34.9901 88.014 45.2204H73.8207ZM47.8103 5.54518C57.964 5.79159 67.5323 9.70508 74.9563 16.6488C74.1896 17.4153 66.1098 25.4924 64.9262 26.6756C60.1863 22.3942 54.176 19.9492 47.8103 19.7127V5.54518ZM5.52692 47.2498H19.6952C19.8068 53.8177 22.2683 60.038 26.6746 64.914L16.6841 74.9019C9.38823 66.8913 5.63593 57.5905 5.52692 47.2498ZM28.0899 66.3694C32.9154 70.9838 39.1292 73.613 45.7809 73.8548V88.0224C35.3399 87.774 25.5694 83.6722 18.0674 76.3896C19.096 75.3613 14.355 80.1012 28.0899 66.3694Z"
            fill="#071B33" />
        <path id="Vector_2"
            d="M33.0059 51.9713C32.4457 51.9713 31.9912 52.4251 31.9912 52.986V58.9401C31.9912 59.5003 32.4457 59.9548 33.0059 59.9548C33.5661 59.9548 34.0206 59.5003 34.0206 58.9401V52.986C34.0206 52.4251 33.5661 51.9713 33.0059 51.9713ZM42.1951 42.5833C41.6349 42.5833 41.1804 43.0378 41.1804 43.598V58.9401C41.1804 59.5003 41.6349 59.9548 42.1951 59.9548C42.7553 59.9548 43.2098 59.5003 43.2098 58.9401V43.598C43.2098 43.0378 42.7553 42.5833 42.1951 42.5833ZM51.3836 47.5537C50.8234 47.5537 50.3689 48.0076 50.3689 48.5684V58.9401C50.3689 59.5003 50.8234 59.9548 51.3836 59.9548C51.9438 59.9548 52.3983 59.5003 52.3983 58.9401V48.5684C52.3983 48.0076 51.9438 47.5537 51.3836 47.5537ZM60.5721 53.2469C60.0119 53.2469 59.5574 53.7008 59.5574 54.2616V58.9401C59.5574 59.5003 60.0119 59.9548 60.5721 59.9548C61.1323 59.9548 61.5868 59.5003 61.5868 58.9401V54.2616C61.5868 53.7008 61.1323 53.2469 60.5721 53.2469Z"
            fill="#071B33" />
        <path id="Vector_3"
            d="M52.0396 41.1148L59.3956 34.8872L59.2588 36.8783C59.2198 37.4372 59.642 37.9214 60.2015 37.9604C60.786 37.9938 61.2463 37.5577 61.283 37.017L61.5849 32.6312C61.6182 32.1364 61.1886 31.5911 60.6481 31.5511L60.6422 31.5491L56.255 31.2472C55.7259 31.2076 55.2119 31.6304 55.1736 32.1899C55.1346 32.7494 55.5567 33.233 56.1163 33.272L58.0076 33.4021L51.2779 39.1006L42.7104 34.0541C42.3345 33.8335 41.8609 33.8758 41.5312 34.1612L32.342 42.1097C31.9186 42.4763 31.8717 43.1171 32.2383 43.5413C32.6036 43.9618 33.2446 44.0126 33.6699 43.6443L42.3081 36.1727L50.8684 41.2146C51.2403 41.4333 51.7093 41.3943 52.0396 41.1148Z"
            fill="#071B33" />
    </g>
</svg>
